<?xml version="1.0" encoding="UTF-8" standalone="no"?>
<!DOCTYPE svg PUBLIC "-//W3C//DTD SVG 1.1//EN"
 "http://www.w3.org/Graphics/SVG/1.1/DTD/svg11.dtd">
<!-- Generated by graphviz version 3.0.0 (20220226.1711)
 -->
<!-- Title: dependencies Pages: 1 -->
<svg width="1159pt" height="247pt"
 viewBox="0.00 0.00 1159.00 246.80" xmlns="http://www.w3.org/2000/svg" xmlns:xlink="http://www.w3.org/1999/xlink">
<g id="graph0" class="graph" transform="scale(1 1) rotate(0) translate(4 242.8)">
<title>dependencies</title>
<polygon fill="white" stroke="transparent" points="-4,4 -4,-242.8 1155,-242.8 1155,4 -4,4"/>
<text text-anchor="middle" x="575.5" y="-8.2" font-family="sans-serif" font-size="14.00">dependencies</text>
<g id="clust1" class="cluster">
<title>cluster_AppModule</title>
<polygon fill="none" stroke="black" stroke-dasharray="1,5" points="8,-32.8 8,-230.8 1143,-230.8 1143,-32.8 8,-32.8"/>
</g>
<g id="clust2" class="cluster">
<title>cluster_AppModule_declarations</title>
<polygon fill="none" stroke="black" points="626,-40.8 626,-92.8 1135,-92.8 1135,-40.8 626,-40.8"/>
</g>
<g id="clust7" class="cluster">
<title>cluster_AppModule_imports</title>
<polygon fill="none" stroke="black" points="16,-40.8 16,-92.8 618,-92.8 618,-40.8 16,-40.8"/>
</g>
<g id="clust9" class="cluster">
<title>cluster_AppModule_bootstrap</title>
<polygon fill="none" stroke="black" points="484,-170.8 484,-222.8 608,-222.8 608,-170.8 484,-170.8"/>
</g>
<!-- AppComponent -->
<g id="node1" class="node">
<title>AppComponent</title>
<polygon fill="#ffffb3" stroke="black" points="1126.94,-84.8 1021.06,-84.8 1021.06,-48.8 1126.94,-48.8 1126.94,-84.8"/>
<text text-anchor="middle" x="1074" y="-62.6" font-family="Times,serif" font-size="14.00">AppComponent</text>
</g>
<!-- AppModule -->
<g id="node5" class="node">
<title>AppModule</title>
<polygon fill="#8dd3c7" stroke="black" points="587.66,-149.8 584.66,-153.8 563.66,-153.8 560.66,-149.8 504.34,-149.8 504.34,-113.8 587.66,-113.8 587.66,-149.8"/>
<text text-anchor="middle" x="546" y="-127.6" font-family="Times,serif" font-size="14.00">AppModule</text>
</g>
<!-- AppComponent&#45;&gt;AppModule -->
<g id="edge1" class="edge">
<title>AppComponent&#45;&gt;AppModule</title>
<path fill="none" stroke="black" d="M1074,-84.81C1074,-107.29 1074,-142.8 1074,-142.8 1074,-142.8 597.87,-142.8 597.87,-142.8"/>
<polygon fill="black" stroke="black" points="597.87,-139.3 587.87,-142.8 597.87,-146.3 597.87,-139.3"/>
</g>
<!-- PostComponent -->
<g id="node2" class="node">
<title>PostComponent</title>
<polygon fill="#ffffb3" stroke="black" points="1003.96,-84.8 898.04,-84.8 898.04,-48.8 1003.96,-48.8 1003.96,-84.8"/>
<text text-anchor="middle" x="951" y="-62.6" font-family="Times,serif" font-size="14.00">PostComponent</text>
</g>
<!-- PostComponent&#45;&gt;AppModule -->
<g id="edge2" class="edge">
<title>PostComponent&#45;&gt;AppModule</title>
<path fill="none" stroke="black" d="M951,-84.93C951,-105.37 951,-135.8 951,-135.8 951,-135.8 597.82,-135.8 597.82,-135.8"/>
<polygon fill="black" stroke="black" points="597.82,-132.3 587.82,-135.8 597.82,-139.3 597.82,-132.3"/>
</g>
<!-- ToggleDirective -->
<g id="node3" class="node">
<title>ToggleDirective</title>
<polygon fill="#ffffb3" stroke="black" points="879.74,-84.8 772.26,-84.8 772.26,-48.8 879.74,-48.8 879.74,-84.8"/>
<text text-anchor="middle" x="826" y="-62.6" font-family="Times,serif" font-size="14.00">ToggleDirective</text>
</g>
<!-- ToggleDirective&#45;&gt;AppModule -->
<g id="edge3" class="edge">
<title>ToggleDirective&#45;&gt;AppModule</title>
<path fill="none" stroke="black" d="M826,-85.07C826,-103.36 826,-128.8 826,-128.8 826,-128.8 597.92,-128.8 597.92,-128.8"/>
<polygon fill="black" stroke="black" points="597.92,-125.3 587.92,-128.8 597.92,-132.3 597.92,-125.3"/>
</g>
<!-- TopicsComponent -->
<g id="node4" class="node">
<title>TopicsComponent</title>
<polygon fill="#ffffb3" stroke="black" points="753.94,-84.8 634.06,-84.8 634.06,-48.8 753.94,-48.8 753.94,-84.8"/>
<text text-anchor="middle" x="694" y="-62.6" font-family="Times,serif" font-size="14.00">TopicsComponent</text>
</g>
<!-- TopicsComponent&#45;&gt;AppModule -->
<g id="edge4" class="edge">
<title>TopicsComponent&#45;&gt;AppModule</title>
<path fill="none" stroke="black" d="M694,-84.81C694,-100.85 694,-121.8 694,-121.8 694,-121.8 598.01,-121.8 598.01,-121.8"/>
<polygon fill="black" stroke="black" points="598.02,-118.3 588.01,-121.8 598.01,-125.3 598.02,-118.3"/>
</g>
<!-- AppComponent  -->
<g id="node11" class="node">
<title>AppComponent </title>
<polygon fill="#80b1d3" stroke="black" points="600.44,-214.8 491.56,-214.8 491.56,-178.8 600.44,-178.8 600.44,-214.8"/>
<text text-anchor="middle" x="546" y="-192.6" font-family="Times,serif" font-size="14.00">AppComponent </text>
</g>
<!-- AppModule&#45;&gt;AppComponent  -->
<g id="edge10" class="edge">
<title>AppModule&#45;&gt;AppComponent </title>
<path fill="none" stroke="black" stroke-dasharray="1,5" d="M546,-149.91C546,-149.91 546,-168.79 546,-168.79"/>
<polygon fill="black" stroke="black" points="542.5,-168.79 546,-178.79 549.5,-168.79 542.5,-168.79"/>
</g>
<!-- AppRoutingModule -->
<g id="node6" class="node">
<title>AppRoutingModule</title>
<polygon fill="#8dd3c7" stroke="black" points="610.28,-84.8 607.28,-88.8 586.28,-88.8 583.28,-84.8 481.72,-84.8 481.72,-48.8 610.28,-48.8 610.28,-84.8"/>
<text text-anchor="middle" x="546" y="-62.6" font-family="Times,serif" font-size="14.00">AppRoutingModule</text>
</g>
<!-- AppRoutingModule&#45;&gt;AppModule -->
<g id="edge5" class="edge">
<title>AppRoutingModule&#45;&gt;AppModule</title>
<path fill="none" stroke="black" d="M546,-84.91C546,-84.91 546,-103.79 546,-103.79"/>
<polygon fill="black" stroke="black" points="542.5,-103.79 546,-113.79 549.5,-103.79 542.5,-103.79"/>
</g>
<!-- FulltopicModule -->
<g id="node7" class="node">
<title>FulltopicModule</title>
<polygon fill="#8dd3c7" stroke="black" points="464.11,-84.8 461.11,-88.8 440.11,-88.8 437.11,-84.8 353.89,-84.8 353.89,-48.8 464.11,-48.8 464.11,-84.8"/>
<text text-anchor="middle" x="409" y="-62.6" font-family="Times,serif" font-size="14.00">FulltopicModule</text>
</g>
<!-- FulltopicModule&#45;&gt;AppModule -->
<g id="edge6" class="edge">
<title>FulltopicModule&#45;&gt;AppModule</title>
<path fill="none" stroke="black" d="M409,-84.81C409,-100.85 409,-121.8 409,-121.8 409,-121.8 494.15,-121.8 494.15,-121.8"/>
<polygon fill="black" stroke="black" points="494.15,-125.3 504.15,-121.8 494.15,-118.3 494.15,-125.3"/>
</g>
<!-- IndexModule -->
<g id="node8" class="node">
<title>IndexModule</title>
<polygon fill="#8dd3c7" stroke="black" points="335.93,-84.8 332.93,-88.8 311.93,-88.8 308.93,-84.8 244.07,-84.8 244.07,-48.8 335.93,-48.8 335.93,-84.8"/>
<text text-anchor="middle" x="290" y="-62.6" font-family="Times,serif" font-size="14.00">IndexModule</text>
</g>
<!-- IndexModule&#45;&gt;AppModule -->
<g id="edge7" class="edge">
<title>IndexModule&#45;&gt;AppModule</title>
<path fill="none" stroke="black" d="M290,-85.07C290,-103.36 290,-128.8 290,-128.8 290,-128.8 494.3,-128.8 494.3,-128.8"/>
<polygon fill="black" stroke="black" points="494.3,-132.3 504.3,-128.8 494.3,-125.3 494.3,-132.3"/>
</g>
<!-- SharedModule -->
<g id="node9" class="node">
<title>SharedModule</title>
<polygon fill="#8dd3c7" stroke="black" points="226.43,-84.8 223.43,-88.8 202.43,-88.8 199.43,-84.8 127.57,-84.8 127.57,-48.8 226.43,-48.8 226.43,-84.8"/>
<text text-anchor="middle" x="177" y="-62.6" font-family="Times,serif" font-size="14.00">SharedModule</text>
</g>
<!-- SharedModule&#45;&gt;AppModule -->
<g id="edge8" class="edge">
<title>SharedModule&#45;&gt;AppModule</title>
<path fill="none" stroke="black" d="M177,-84.93C177,-105.37 177,-135.8 177,-135.8 177,-135.8 494.03,-135.8 494.03,-135.8"/>
<polygon fill="black" stroke="black" points="494.03,-139.3 504.03,-135.8 494.03,-132.3 494.03,-139.3"/>
</g>
<!-- UserModule -->
<g id="node10" class="node">
<title>UserModule</title>
<polygon fill="#8dd3c7" stroke="black" points="109.99,-84.8 106.99,-88.8 85.99,-88.8 82.99,-84.8 24.01,-84.8 24.01,-48.8 109.99,-48.8 109.99,-84.8"/>
<text text-anchor="middle" x="67" y="-62.6" font-family="Times,serif" font-size="14.00">UserModule</text>
</g>
<!-- UserModule&#45;&gt;AppModule -->
<g id="edge9" class="edge">
<title>UserModule&#45;&gt;AppModule</title>
<path fill="none" stroke="black" d="M67,-84.81C67,-107.29 67,-142.8 67,-142.8 67,-142.8 494.33,-142.8 494.33,-142.8"/>
<polygon fill="black" stroke="black" points="494.33,-146.3 504.33,-142.8 494.33,-139.3 494.33,-146.3"/>
</g>
</g>
</svg>
