<?xml version="1.0" encoding="UTF-8" standalone="no"?>
<!DOCTYPE svg PUBLIC "-//W3C//DTD SVG 1.1//EN"
 "http://www.w3.org/Graphics/SVG/1.1/DTD/svg11.dtd">
<!-- Generated by graphviz version 3.0.0 (20220226.1711)
 -->
<!-- Title: dependencies Pages: 1 -->
<svg width="154pt" height="174pt"
 viewBox="0.00 0.00 154.00 173.80" xmlns="http://www.w3.org/2000/svg" xmlns:xlink="http://www.w3.org/1999/xlink">
<g id="graph0" class="graph" transform="scale(1 1) rotate(0) translate(4 169.8)">
<title>dependencies</title>
<polygon fill="white" stroke="transparent" points="-4,4 -4,-169.8 150,-169.8 150,4 -4,4"/>
<text text-anchor="middle" x="73" y="-8.2" font-family="sans-serif" font-size="14.00">dependencies</text>
<g id="clust1" class="cluster">
<title>cluster_ForumModule</title>
<polygon fill="none" stroke="black" stroke-dasharray="1,5" points="8,-32.8 8,-157.8 138,-157.8 138,-32.8 8,-32.8"/>
</g>
<g id="clust3" class="cluster">
<title>cluster_ForumModule_imports</title>
<polygon fill="none" stroke="black" points="16,-40.8 16,-92.8 130,-92.8 130,-40.8 16,-40.8"/>
</g>
<!-- SharedModule -->
<g id="node1" class="node">
<title>SharedModule</title>
<polygon fill="#8dd3c7" stroke="black" points="122.43,-84.8 119.43,-88.8 98.43,-88.8 95.43,-84.8 23.57,-84.8 23.57,-48.8 122.43,-48.8 122.43,-84.8"/>
<text text-anchor="middle" x="73" y="-62.6" font-family="Times,serif" font-size="14.00">SharedModule</text>
</g>
<!-- ForumModule -->
<g id="node2" class="node">
<title>ForumModule</title>
<polygon fill="#8dd3c7" stroke="black" points="121.39,-149.8 118.39,-153.8 97.39,-153.8 94.39,-149.8 24.61,-149.8 24.61,-113.8 121.39,-113.8 121.39,-149.8"/>
<text text-anchor="middle" x="73" y="-127.6" font-family="Times,serif" font-size="14.00">ForumModule</text>
</g>
<!-- SharedModule&#45;&gt;ForumModule -->
<g id="edge1" class="edge">
<title>SharedModule&#45;&gt;ForumModule</title>
<path fill="none" stroke="black" d="M73,-84.91C73,-84.91 73,-103.79 73,-103.79"/>
<polygon fill="black" stroke="black" points="69.5,-103.79 73,-113.79 76.5,-103.79 69.5,-103.79"/>
</g>
</g>
</svg>
