<?xml version="1.0" encoding="UTF-8" standalone="no"?>
<!DOCTYPE svg PUBLIC "-//W3C//DTD SVG 1.1//EN"
 "http://www.w3.org/Graphics/SVG/1.1/DTD/svg11.dtd">
<!-- Generated by graphviz version 3.0.0 (20220226.1711)
 -->
<!-- Title: dependencies Pages: 1 -->
<svg width="579pt" height="174pt"
 viewBox="0.00 0.00 579.00 173.80" xmlns="http://www.w3.org/2000/svg" xmlns:xlink="http://www.w3.org/1999/xlink">
<g id="graph0" class="graph" transform="scale(1 1) rotate(0) translate(4 169.8)">
<title>dependencies</title>
<polygon fill="white" stroke="transparent" points="-4,4 -4,-169.8 575,-169.8 575,4 -4,4"/>
<text text-anchor="middle" x="285.5" y="-8.2" font-family="sans-serif" font-size="14.00">dependencies</text>
<g id="clust1" class="cluster">
<title>cluster_IndexModule</title>
<polygon fill="none" stroke="black" stroke-dasharray="1,5" points="8,-32.8 8,-157.8 563,-157.8 563,-32.8 8,-32.8"/>
</g>
<g id="clust2" class="cluster">
<title>cluster_IndexModule_declarations</title>
<polygon fill="none" stroke="black" points="138,-40.8 138,-92.8 555,-92.8 555,-40.8 138,-40.8"/>
</g>
<g id="clust6" class="cluster">
<title>cluster_IndexModule_imports</title>
<polygon fill="none" stroke="black" points="16,-40.8 16,-92.8 130,-92.8 130,-40.8 16,-40.8"/>
</g>
<!-- CategoryComponent -->
<g id="node1" class="node">
<title>CategoryComponent</title>
<polygon fill="#ffffb3" stroke="black" points="547.15,-84.8 414.85,-84.8 414.85,-48.8 547.15,-48.8 547.15,-84.8"/>
<text text-anchor="middle" x="481" y="-62.6" font-family="Times,serif" font-size="14.00">CategoryComponent</text>
</g>
<!-- IndexModule -->
<g id="node4" class="node">
<title>IndexModule</title>
<polygon fill="#8dd3c7" stroke="black" points="315.93,-149.8 312.93,-153.8 291.93,-153.8 288.93,-149.8 224.07,-149.8 224.07,-113.8 315.93,-113.8 315.93,-149.8"/>
<text text-anchor="middle" x="270" y="-127.6" font-family="Times,serif" font-size="14.00">IndexModule</text>
</g>
<!-- CategoryComponent&#45;&gt;IndexModule -->
<g id="edge1" class="edge">
<title>CategoryComponent&#45;&gt;IndexModule</title>
<path fill="none" stroke="black" d="M481,-84.91C481,-104.14 481,-131.8 481,-131.8 481,-131.8 325.78,-131.8 325.78,-131.8"/>
<polygon fill="black" stroke="black" points="325.78,-128.3 315.78,-131.8 325.78,-135.3 325.78,-128.3"/>
</g>
<!-- ForumComponent -->
<g id="node2" class="node">
<title>ForumComponent</title>
<polygon fill="#ffffb3" stroke="black" points="396.17,-84.8 277.83,-84.8 277.83,-48.8 396.17,-48.8 396.17,-84.8"/>
<text text-anchor="middle" x="337" y="-62.6" font-family="Times,serif" font-size="14.00">ForumComponent</text>
</g>
<!-- ForumComponent&#45;&gt;IndexModule -->
<g id="edge2" class="edge">
<title>ForumComponent&#45;&gt;IndexModule</title>
<path fill="none" stroke="black" d="M296.69,-84.91C296.69,-84.91 296.69,-103.79 296.69,-103.79"/>
<polygon fill="black" stroke="black" points="293.19,-103.79 296.69,-113.79 300.19,-103.79 293.19,-103.79"/>
</g>
<!-- IndexComponent -->
<g id="node3" class="node">
<title>IndexComponent</title>
<polygon fill="#ffffb3" stroke="black" points="259.71,-84.8 146.29,-84.8 146.29,-48.8 259.71,-48.8 259.71,-84.8"/>
<text text-anchor="middle" x="203" y="-62.6" font-family="Times,serif" font-size="14.00">IndexComponent</text>
</g>
<!-- IndexComponent&#45;&gt;IndexModule -->
<g id="edge3" class="edge">
<title>IndexComponent&#45;&gt;IndexModule</title>
<path fill="none" stroke="black" d="M241.94,-84.91C241.94,-84.91 241.94,-103.79 241.94,-103.79"/>
<polygon fill="black" stroke="black" points="238.44,-103.79 241.94,-113.79 245.44,-103.79 238.44,-103.79"/>
</g>
<!-- SharedModule -->
<g id="node5" class="node">
<title>SharedModule</title>
<polygon fill="#8dd3c7" stroke="black" points="122.43,-84.8 119.43,-88.8 98.43,-88.8 95.43,-84.8 23.57,-84.8 23.57,-48.8 122.43,-48.8 122.43,-84.8"/>
<text text-anchor="middle" x="73" y="-62.6" font-family="Times,serif" font-size="14.00">SharedModule</text>
</g>
<!-- SharedModule&#45;&gt;IndexModule -->
<g id="edge4" class="edge">
<title>SharedModule&#45;&gt;IndexModule</title>
<path fill="none" stroke="black" d="M73,-84.91C73,-104.14 73,-131.8 73,-131.8 73,-131.8 213.81,-131.8 213.81,-131.8"/>
<polygon fill="black" stroke="black" points="213.81,-135.3 223.81,-131.8 213.81,-128.3 213.81,-135.3"/>
</g>
</g>
</svg>
